<svg width="15" height="18" viewBox="0 0 15 18" fill="none" xmlns="http://www.w3.org/2000/svg">
<path d="M14.9995 12.7789V15.3351C15.0004 15.5724 14.9574 15.8073 14.8732 16.0247C14.7891 16.2421 14.6657 16.4373 14.5109 16.5977C14.3561 16.7581 14.1734 16.8803 13.9744 16.9563C13.7754 17.0323 13.5646 17.0606 13.3554 17.0392C11.0346 16.7543 8.80532 15.8584 6.84668 14.4234C5.02441 13.1152 3.47945 11.3698 2.3215 9.31105C1.0469 7.08821 0.253681 4.55743 0.00612159 1.92373C-0.0127254 1.6881 0.0120608 1.45063 0.0789018 1.22642C0.145743 1.00222 0.253174 0.796192 0.394356 0.621462C0.535538 0.446733 0.707377 0.307129 0.898932 0.211539C1.09049 0.115949 1.29756 0.0664675 1.50697 0.0662447H3.76956C4.13558 0.0621749 4.49041 0.208605 4.76793 0.478242C5.04546 0.747878 5.22672 1.12232 5.27795 1.53178C5.37345 2.34981 5.55055 3.15301 5.80589 3.92606C5.90736 4.23103 5.92932 4.56247 5.86917 4.88111C5.80902 5.19975 5.66928 5.49223 5.4665 5.7239L4.50867 6.80601C5.58231 8.93917 7.14568 10.7054 9.03385 11.9183L9.99167 10.8362C10.1967 10.6071 10.4556 10.4493 10.7377 10.3813C11.0197 10.3134 11.3131 10.3382 11.583 10.4528C12.2673 10.7413 12.9782 10.9414 13.7023 11.0492C14.0687 11.1076 14.4033 11.3161 14.6424 11.635C14.8816 11.9539 15.0087 12.361 14.9995 12.7789Z" fill="#459D72"/>
</svg>
