<svg width="54" height="72" viewBox="0 0 54 72" fill="none" xmlns="http://www.w3.org/2000/svg">
<path d="M14.9529 7.3143V18.2226L20.2472 25.321L23.1448 12.0406C23.1538 11.9777 23.1806 11.9328 23.2253 11.8789C23.2611 11.834 23.3147 11.798 23.3773 11.78C23.4399 11.7621 23.4936 11.7621 23.5562 11.78C23.6188 11.789 23.6635 11.816 23.7172 11.8609C23.7619 11.9058 23.7977 11.9508 23.8155 12.0137C23.8334 12.0766 23.8334 12.1305 23.8155 12.1934L20.7928 26.0489L25.3716 32.1769L29.0294 17.7374C29.0294 17.7374 29.0652 17.6565 29.092 17.6206C29.1188 17.5846 29.1546 17.5577 29.1904 17.5397C29.2261 17.5217 29.2708 17.5037 29.3156 17.4948C29.3603 17.4948 29.405 17.4948 29.4497 17.4948C29.4944 17.5037 29.5302 17.5217 29.566 17.5487C29.6017 17.5756 29.6286 17.6026 29.6554 17.6475C29.6822 17.6924 29.6912 17.7284 29.7001 17.7733C29.7001 17.8182 29.7001 17.8632 29.7001 17.9081L25.9082 32.8778L29.4676 37.64L34.4668 21.6909C34.4668 21.6909 34.5026 21.6101 34.5294 21.5741C34.5562 21.5382 34.592 21.5112 34.6367 21.4933C34.6725 21.4753 34.7172 21.4573 34.7619 21.4573C34.8066 21.4573 34.8514 21.4573 34.8961 21.4663C34.9408 21.4843 34.9766 21.5022 35.0123 21.5292C35.0481 21.5562 35.0749 21.5921 35.1018 21.628C35.1196 21.664 35.1375 21.7089 35.1375 21.7538C35.1375 21.7988 35.1375 21.8437 35.1286 21.8886L29.9774 38.3049L33.814 43.4356L39.4213 29.023C39.4928 28.8433 39.6896 28.7535 39.8684 28.8343C39.9042 28.8523 39.94 28.8703 39.9758 28.8972C40.0115 28.9242 40.0294 28.9601 40.0473 28.9961C40.0652 29.032 40.0741 29.0769 40.0831 29.1129C40.0831 29.1578 40.0831 29.1938 40.0741 29.2387V29.2656L34.3058 44.0736L37.8473 48.8089L43.2668 35.7351C43.2668 35.7351 43.3115 35.6543 43.3384 35.6273C43.3741 35.5914 43.4099 35.5734 43.4457 35.5554C43.4815 35.5374 43.5351 35.5285 43.5798 35.5285C43.6246 35.5285 43.6693 35.5374 43.714 35.5554C43.7587 35.5734 43.7945 35.6003 43.8213 35.6273C43.8481 35.6632 43.875 35.6992 43.8929 35.7351C43.9107 35.78 43.9197 35.816 43.9197 35.8699C43.9197 35.9238 43.9107 35.9598 43.8929 36.0047L38.3213 49.4558L42.9449 55.6468C42.9807 55.6917 43.0075 55.7456 43.0075 55.8085C43.0075 55.8714 43.0075 55.9253 42.9807 55.9882C42.9538 56.0421 42.918 56.0871 42.8733 56.123C42.8286 56.1589 42.775 56.1859 42.7124 56.1859C42.6498 56.1859 42.5961 56.1859 42.5335 56.1589C42.4798 56.132 42.4351 56.096 42.3904 56.0511L37.7668 49.8602L23.2879 51.3967C23.2253 51.3967 23.1716 51.3967 23.109 51.3697C23.0554 51.3428 23.0107 51.3068 22.9749 51.2619C22.9391 51.217 22.9212 51.1541 22.9123 51.1002C22.9123 51.0373 22.9123 50.9833 22.9391 50.9204C22.966 50.8665 23.0017 50.8216 23.0464 50.7857C23.0912 50.7497 23.1538 50.7318 23.2164 50.7228L37.2839 49.2312L34.0018 44.8373L33.966 44.9272L17.3228 47.1196C17.2602 47.1196 17.2066 47.1196 17.144 47.0927C17.0814 47.0657 17.0367 47.0298 17.0009 46.9848C16.9651 46.9399 16.9383 46.886 16.9293 46.8231C16.9293 46.7602 16.9293 46.7063 16.9562 46.6434C16.983 46.5895 17.0188 46.5356 17.0635 46.4996C17.1082 46.4637 17.1708 46.4367 17.2245 46.4277L33.4652 44.2892L33.5009 44.1904L29.6554 39.0507L13.7366 41.7464C13.6919 41.7464 13.6472 41.7464 13.6025 41.7464C13.5578 41.7374 13.522 41.7194 13.4773 41.6924C13.4415 41.6655 13.4058 41.6295 13.3879 41.5936C13.361 41.5577 13.3432 41.5127 13.3432 41.4678C13.3432 41.4229 13.3432 41.378 13.3432 41.333C13.3521 41.2881 13.37 41.2432 13.3968 41.2072C13.4236 41.1713 13.4594 41.1443 13.4952 41.1174C13.531 41.0904 13.5757 41.0724 13.6204 41.0724L29.1904 38.4307L25.2733 33.1833L8.90736 35.6992C8.86265 35.6992 8.81793 35.6992 8.77322 35.6992C8.7285 35.6902 8.69273 35.6722 8.65696 35.6453C8.62119 35.6183 8.58541 35.5824 8.56753 35.5464C8.5407 35.5105 8.53175 35.4656 8.52281 35.4206C8.52281 35.3757 8.52281 35.3308 8.52281 35.2859C8.53175 35.2409 8.54964 35.205 8.57647 35.1601C8.6033 35.1241 8.63907 35.0972 8.67484 35.0702C8.71062 35.0432 8.75533 35.0343 8.80005 35.0253L24.8082 32.5633L20.3993 26.6689L7.61956 28.43C7.55695 28.43 7.50329 28.43 7.44069 28.412C7.38703 28.3941 7.33338 28.3491 7.2976 28.3042C7.26183 28.2593 7.235 28.1964 7.22606 28.1425C7.22606 28.0796 7.22606 28.0257 7.25289 27.9628C7.27972 27.8999 7.31549 27.8549 7.3602 27.819C7.41386 27.783 7.46752 27.7561 7.53012 27.7561L19.9342 26.0489L14.6041 18.9145L5.51792 20.1275C5.45532 20.1275 5.40166 20.1275 5.33906 20.1095C5.2854 20.0826 5.24069 20.0466 5.19597 20.0017C5.1602 19.9568 5.13337 19.8939 5.12443 19.8399C5.12443 19.7771 5.12443 19.7231 5.15126 19.6602C5.17808 19.6063 5.21386 19.5524 5.25857 19.5165C5.31223 19.4805 5.36589 19.4536 5.41955 19.4446L14.1212 18.2855L5.82199 7.15256C5.82199 7.15256 5.77727 7.0717 5.76833 7.03575C5.75939 6.99083 5.75939 6.9459 5.76833 6.90097C5.76833 6.85605 5.78622 6.81112 5.81305 6.77518C5.83987 6.73924 5.8667 6.70329 5.90248 6.67634C5.93825 6.64938 5.97402 6.63141 6.01874 6.61344C6.06345 6.60445 6.10817 6.59547 6.15288 6.61344C6.1976 6.61344 6.24232 6.63141 6.27809 6.65837C6.31386 6.68532 6.34963 6.71228 6.37646 6.74822L14.2732 17.324V7.3143C14.2732 7.3143 14.3001 7.23343 14.318 7.18851C14.3358 7.15256 14.3627 7.11662 14.3895 7.08967C14.4253 7.06271 14.461 7.03575 14.4968 7.01778C14.5326 6.99981 14.5773 6.99083 14.622 6.99083C14.6667 6.99083 14.7114 6.99083 14.7472 7.01778C14.783 7.03575 14.8277 7.05372 14.8545 7.08967C14.8903 7.11662 14.9082 7.15256 14.935 7.18851C14.9529 7.22445 14.9619 7.26937 14.9708 7.3143M0.017904 0.0810549C0.017904 0.0810549 -1.05527 36.0316 12.1805 49.1234C25.4164 62.2151 45.3327 61.1458 45.3327 61.1458C45.3327 61.1458 50.3587 67.0223 49.9205 69.2956L49.4823 71.5779L53.5604 72.0002C53.5604 72.0002 54.8661 65.1623 51.6734 62.0084C48.4807 58.8456 48.4538 55.2065 48.4538 55.2065C48.4538 55.2065 56.0376 40.129 37.3018 18.8965C18.5659 -2.33602 0.017904 0.0810549 0.017904 0.0810549Z" fill="white"/>
</svg>
