<svg width="14" height="33" viewBox="0 0 14 33" fill="none" xmlns="http://www.w3.org/2000/svg">
<path d="M3.52938 16.4988L13.3847 2.66319C13.4405 2.58374 13.4632 2.48574 13.4482 2.38984C13.4331 2.29394 13.3814 2.20764 13.3039 2.14913L11.5047 0.871319C11.4255 0.81672 11.3281 0.795364 11.2333 0.811843C11.1386 0.828322 11.0541 0.88132 10.998 0.959444L0.0778174 16.2858C0.031357 16.3471 0.00621033 16.4219 0.00621033 16.4988C0.00621033 16.5757 0.031357 16.6505 0.0778174 16.7118L10.998 32.0382C11.0305 32.086 11.0743 32.1251 11.1256 32.152C11.1768 32.1789 11.2339 32.1928 11.2917 32.1924C11.9928 31.7916 12.6651 31.3425 13.3039 30.8485C13.3814 30.79 13.4331 30.7037 13.4482 30.6078C13.4632 30.5119 13.4405 30.4139 13.3847 30.3344L3.52938 16.4988Z" fill="#459D72"/>
</svg>
